<?xml version="1.0" encoding="UTF-8"?> <svg xmlns="http://www.w3.org/2000/svg" id="Layer_1" version="1.1" viewBox="0 0 400 69"><defs><style> .st0 { fill: #022828; } .st1 { fill: #78e3df; } .st2 { fill: #468c89; } </style></defs><g><path class="st2" d="M8.27,55.96c8.14,4.7,18.45-1.9,25.28-14.67h0c-8.79-6.2-18.15-10.86-32.55-10.86v13.58c0,4.76,2.54,9.22,6.65,11.6l6.91,3.99h0l-6.3-3.64h0Z"></path><path class="st0" d="M33.56,41.29s0,0,0,0h0c-6.84,12.77-17.15,19.38-25.28,14.67h0s6.3,3.64,6.3,3.64l12.34,7.13c3.93,2.28,9.36,2.28,13.3,0l19.25-11.12c4.12-2.38,6.65-6.85,6.65-11.6V14.14c-18.61,3.38-25.72,14.37-32.55,27.15Z"></path><path class="st1" d="M26.74,25c6.75,0,12.22-5.47,12.22-12.22S33.48.56,26.74.56s-12.22,5.47-12.22,12.22,5.47,12.22,12.22,12.22h0Z"></path></g><path class="st0" d="M139.72,14.07v43.29h-8.63V24.38c-3.16,6.24-8.05,19.19-12.23,32.98h-5.93c-4.18-13.79-9.07-26.74-12.23-32.98v32.98h-8.63V14.07h12.42c4.91,10.45,7.89,18.72,11.05,29.69l.35,1.42.35-1.42c3.17-10.97,6.14-19.24,11.05-29.69h12.42ZM348.06,51.26c-4.67,0-8.96-3.47-8.96-9.99s4.26-10.01,8.96-10.01,8.99,3.49,8.99,10.01-4.31,9.99-8.99,9.99ZM348.06,58.13c11.17,0,17.79-7.43,17.79-16.86s-6.79-16.92-17.79-16.92-17.76,7.5-17.76,16.92,6.59,16.86,17.76,16.86ZM381.61,47.16l7.39,10.19h10l-11.9-16.33,11.73-15.88h-8.82l-7.14,10.06-7.36-10.06h-10.04l11.8,16.16-11.96,16.05h9.01l7.28-10.19h0ZM300.57,14.07h-8.56v43.29h5.57l1.27-4.99c2.7,4.04,7.16,5.76,12.23,5.76,9.05,0,16.05-7.14,16.05-16.96s-7-16.82-16.05-16.82c-4.44,0-8.02,1.46-10.51,4.3v-14.58ZM318.37,41.27c0,6.46-4.26,9.99-8.96,9.99s-8.99-3.47-8.99-9.99,4.31-10.01,8.99-10.01,8.96,3.49,8.96,10.01ZM161.87,51.26c-4.67,0-8.96-3.47-8.96-9.99s4.26-10.01,8.96-10.01,8.99,3.49,8.99,10.01-4.31,9.99-8.99,9.99ZM161.87,58.13c11.17,0,17.79-7.43,17.79-16.86s-6.79-16.92-17.79-16.92-17.76,7.5-17.76,16.92,6.59,16.86,17.76,16.86ZM229.64,37.19c1.15-4.52,4.33-6.8,8.2-6.8,4.4,0,7,3.03,7.55,6.8h-15.75ZM238.04,58.13c10.4,0,15.39-6,16.16-12.17h-8.13c-.95,3.4-3.43,5.91-7.91,5.91s-8.49-3.04-8.91-9.39h25.05c.19-10.28-5.25-18.13-16.46-18.13-10.59,0-17.35,7.5-17.35,16.92s7.14,16.86,17.54,16.86ZM184.05,25.15v32.21h9.04v-16.22c0-6.15,3.59-9.36,7.95-9.36,4.04,0,6.03,2.31,6.03,8.4v17.18h9.04v-19.36c0-8.85-4.04-13.65-11.79-13.65-5.13,0-8.97,1.73-11.66,5.7l-.39-4.9-8.21-.03v.03ZM280.47,25.15c-2.41,7.89-5.01,14.89-8.04,21.96-3.05-7.15-5.65-14.14-8.04-21.96h-9.46c3.74,11.74,7.84,21.39,13.15,32.2-1.16,2.5-2.64,3.53-5.52,3.53-2.11,0-3.2-.13-5.64-.51v7.43c2.24.38,3.72.64,6.73.64,1.88,0,3.78-.3,5.46-1.18,1.76-.92,3.12-2.41,4.2-4.05.64-.97,1.2-2,1.72-3.06,2-4.04,3.8-8.21,5.56-12.35,2.18-5.14,4.16-10.36,5.93-15.65.77-2.32,1.51-4.65,2.2-6.99h-8.25Z"></path></svg> 